<svg width="30" height="29" viewBox="0 0 30 29" fill="none" xmlns="http://www.w3.org/2000/svg">
<path d="M23.5429 5.95708C21.5603 3.96152 18.9436 2.72022 16.1439 2.44717C13.3441 2.17412 10.5369 2.88644 8.20603 4.46133C5.8752 6.03621 4.16687 8.37497 3.37557 11.0744C2.58427 13.7738 2.75957 16.6647 3.87127 19.2488C3.98714 19.4889 4.02516 19.7593 3.98002 20.0221L2.91669 25.1333C2.87572 25.3293 2.88409 25.5324 2.94103 25.7243C2.99798 25.9162 3.10172 26.091 3.24294 26.2329C3.3587 26.3478 3.49654 26.4381 3.64813 26.4984C3.79973 26.5586 3.96195 26.5875 4.12502 26.5833H4.36669L9.53835 25.5442C9.8012 25.5126 10.0677 25.55 10.3117 25.6529C12.8957 26.7646 15.7866 26.9399 18.486 26.1486C21.1855 25.3573 23.5242 23.649 25.0991 21.3182C26.674 18.9873 27.3863 16.1801 27.1133 13.3803C26.8402 10.5806 25.5989 7.96387 23.6034 5.98125L23.5429 5.95708ZM10.1667 15.7083C9.9277 15.7083 9.69408 15.6375 9.49537 15.5047C9.29666 15.3719 9.14179 15.1832 9.05033 14.9624C8.95888 14.7416 8.93495 14.4987 8.98157 14.2643C9.0282 14.0299 9.14328 13.8146 9.31227 13.6456C9.48126 13.4766 9.69656 13.3615 9.93095 13.3149C10.1653 13.2683 10.4083 13.2922 10.6291 13.3836C10.8499 13.4751 11.0386 13.63 11.1714 13.8287C11.3042 14.0274 11.375 14.261 11.375 14.5C11.375 14.8205 11.2477 15.1278 11.0211 15.3544C10.7945 15.581 10.4872 15.7083 10.1667 15.7083ZM15 15.7083C14.761 15.7083 14.5274 15.6375 14.3287 15.5047C14.13 15.3719 13.9751 15.1832 13.8837 14.9624C13.7922 14.7416 13.7683 14.4987 13.8149 14.2643C13.8615 14.0299 13.9766 13.8146 14.1456 13.6456C14.3146 13.4766 14.5299 13.3615 14.7643 13.3149C14.9987 13.2683 15.2416 13.2922 15.4624 13.3836C15.6832 13.4751 15.8719 13.63 16.0047 13.8287C16.1375 14.0274 16.2084 14.261 16.2084 14.5C16.2084 14.8205 16.081 15.1278 15.8544 15.3544C15.6278 15.581 15.3205 15.7083 15 15.7083ZM19.8334 15.7083C19.5944 15.7083 19.3607 15.6375 19.162 15.5047C18.9633 15.3719 18.8085 15.1832 18.717 14.9624C18.6255 14.7416 18.6016 14.4987 18.6482 14.2643C18.6949 14.0299 18.8099 13.8146 18.9789 13.6456C19.1479 13.4766 19.3632 13.3615 19.5976 13.3149C19.832 13.2683 20.075 13.2922 20.2958 13.3836C20.5166 13.4751 20.7053 13.63 20.838 13.8287C20.9708 14.0274 21.0417 14.261 21.0417 14.5C21.0417 14.8205 20.9144 15.1278 20.6878 15.3544C20.4612 15.581 20.1538 15.7083 19.8334 15.7083Z" fill="#231F20"/>
</svg>
