<svg width="30" height="29" viewBox="0 0 30 29" fill="none" xmlns="http://www.w3.org/2000/svg">
<path d="M15 2.41667C12.6101 2.41667 10.2739 3.12535 8.28683 4.45308C6.29973 5.78081 4.75098 7.66797 3.83642 9.87591C2.92186 12.0839 2.68257 14.5134 3.14881 16.8573C3.61505 19.2013 4.76587 21.3543 6.45576 23.0442C8.14564 24.7341 10.2987 25.8849 12.6426 26.3512C14.9866 26.8174 17.4161 26.5781 19.6241 25.6636C21.832 24.749 23.7192 23.2002 25.0469 21.2131C26.3746 19.2261 27.0833 16.8899 27.0833 14.5C27.0833 12.9132 26.7708 11.3419 26.1635 9.87591C25.5563 8.4099 24.6662 7.07784 23.5442 5.9558C22.4221 4.83376 21.0901 3.94371 19.6241 3.33646C18.158 2.72922 16.5868 2.41667 15 2.41667ZM15 24.1667C13.0881 24.1667 11.2191 23.5997 9.62945 22.5375C8.03978 21.4754 6.80078 19.9656 6.06913 18.1993C5.33748 16.4329 5.14605 14.4893 5.51904 12.6141C5.89203 10.739 6.81269 9.01655 8.1646 7.66464C9.51651 6.31273 11.2389 5.39207 13.1141 5.01908C14.9892 4.64609 16.9329 4.83752 18.6992 5.56917C20.4656 6.30082 21.9753 7.53982 23.0375 9.12949C24.0997 10.7192 24.6666 12.5881 24.6666 14.5C24.6666 17.0638 23.6482 19.5225 21.8353 21.3354C20.0225 23.1482 17.5637 24.1667 15 24.1667Z" fill="#231F20"/>
<path d="M18.2624 10.1379L13.6949 16.1796L11.7254 13.63C11.5283 13.3768 11.2387 13.2123 10.9203 13.1727C10.6019 13.133 10.2808 13.2215 10.0277 13.4185C9.77448 13.6156 9.60997 13.9052 9.57032 14.2236C9.53066 14.542 9.6191 14.8631 9.81619 15.1163L12.7524 18.8742C12.8662 19.0182 13.0113 19.1344 13.1767 19.2139C13.3421 19.2935 13.5235 19.3343 13.707 19.3333C13.8916 19.3329 14.0735 19.2902 14.239 19.2085C14.4045 19.1268 14.549 19.0083 14.6616 18.8621L20.1837 11.6121C20.3792 11.3557 20.4648 11.0322 20.4218 10.7127C20.3787 10.3932 20.2105 10.1038 19.9541 9.90834C19.6977 9.71285 19.3742 9.62722 19.0547 9.67027C18.7352 9.71333 18.4458 9.88155 18.2504 10.1379H18.2624Z" fill="#231F20"/>
</svg>
