<svg width="30" height="29" viewBox="0 0 30 29" fill="none" xmlns="http://www.w3.org/2000/svg">
<path d="M21.0417 9.66667H19.8333V7.38292C19.8333 6.10104 19.3241 4.87167 18.4177 3.96524C17.5113 3.05882 16.2819 2.54959 15 2.54959C13.7181 2.54959 12.4888 3.05882 11.5823 3.96524C10.6759 4.87167 10.1667 6.10104 10.1667 7.38292V9.66667H8.95834C7.99693 9.66667 7.0749 10.0486 6.39508 10.7284C5.71526 11.4082 5.33334 12.3303 5.33334 13.2917V22.9583C5.33334 23.9197 5.71526 24.8418 6.39508 25.5216C7.0749 26.2014 7.99693 26.5833 8.95834 26.5833H21.0417C22.0031 26.5833 22.9251 26.2014 23.6049 25.5216C24.2848 24.8418 24.6667 23.9197 24.6667 22.9583V13.2917C24.6667 12.3303 24.2848 11.4082 23.6049 10.7284C22.9251 10.0486 22.0031 9.66667 21.0417 9.66667ZM12.5833 7.38292C12.5671 6.72474 12.8123 6.08692 13.2652 5.60909C13.7181 5.13125 14.3419 4.85232 15 4.83334C15.6581 4.85232 16.2819 5.13125 16.7348 5.60909C17.1878 6.08692 17.4329 6.72474 17.4167 7.38292V9.66667H12.5833V7.38292ZM22.25 22.9583C22.25 23.2788 22.1227 23.5862 21.8961 23.8128C21.6695 24.0394 21.3621 24.1667 21.0417 24.1667H8.95834C8.63787 24.1667 8.33053 24.0394 8.10392 23.8128C7.87732 23.5862 7.75001 23.2788 7.75001 22.9583V13.2917C7.75001 12.9712 7.87732 12.6639 8.10392 12.4373C8.33053 12.2106 8.63787 12.0833 8.95834 12.0833H21.0417C21.3621 12.0833 21.6695 12.2106 21.8961 12.4373C22.1227 12.6639 22.25 12.9712 22.25 13.2917V22.9583Z" fill="#231F20"/>
<path d="M15 14.5C14.283 14.5 13.5822 14.7126 12.986 15.1109C12.3899 15.5092 11.9253 16.0754 11.6509 16.7378C11.3765 17.4002 11.3048 18.129 11.4446 18.8322C11.5845 19.5354 11.9297 20.1813 12.4367 20.6883C12.9437 21.1952 13.5896 21.5405 14.2928 21.6803C14.996 21.8202 15.7248 21.7484 16.3872 21.4741C17.0496 21.1997 17.6157 20.7351 18.014 20.1389C18.4124 19.5428 18.625 18.842 18.625 18.125C18.625 17.1636 18.2431 16.2416 17.5632 15.5617C16.8834 14.8819 15.9614 14.5 15 14.5ZM15 19.3333C14.761 19.3333 14.5274 19.2625 14.3287 19.1297C14.1299 18.9969 13.9751 18.8082 13.8836 18.5874C13.7922 18.3666 13.7682 18.1237 13.8149 17.8893C13.8615 17.6549 13.9766 17.4396 14.1456 17.2706C14.3145 17.1016 14.5298 16.9865 14.7642 16.9399C14.9986 16.8933 15.2416 16.9172 15.4624 17.0086C15.6832 17.1001 15.8719 17.255 16.0047 17.4537C16.1374 17.6524 16.2083 17.886 16.2083 18.125C16.2083 18.4455 16.081 18.7528 15.8544 18.9794C15.6278 19.206 15.3204 19.3333 15 19.3333Z" fill="#231F20"/>
</svg>


